<?xml version="1.0" encoding="UTF-8"?>
<svg width="500px" height="298px" viewBox="0 0 500 298" version="1.1" xmlns="http://www.w3.org/2000/svg" xmlns:xlink="http://www.w3.org/1999/xlink">
    <!-- Generator: Sketch 49 (51002) - http://www.bohemiancoding.com/sketch -->
    <title>revised-square-2</title>
    <desc>Created with Sketch.</desc>
    <defs></defs>
    <g id="revised-square-2" stroke="none" stroke-width="1" fill="none" fill-rule="evenodd">
        <path d="M295.5,166.846376 L32.5,88.523411 L32.5,134 C32.5,165.792219 32.5,165.792219 32.5,216.324359 C32.5,239.054579 32.5,239.054579 32.5,260.079205 C32.5,267.632509 33.0291439,270.372641 34.5366792,273.191487 C35.761105,275.480964 37.5190355,277.238895 39.8085127,278.463321 C42.6273586,279.970856 45.3674906,280.5 52.9207946,280.5 L275.079205,280.5 C282.632509,280.5 285.372641,279.970856 288.191487,278.463321 C290.480964,277.238895 292.238895,275.480964 293.463321,273.191487 C294.970856,270.372641 295.5,267.632509 295.5,260.079205 L295.5,166.846376 Z M32.5,45.2606504 L290.111963,127.5 L295.5,127.5 L295.5,37.9207946 C295.5,30.3674906 294.970856,27.6273586 293.463321,24.8085127 C292.238895,22.5190355 290.480964,20.761105 288.191487,19.5366792 C285.372641,18.0291439 282.632509,17.5 275.079205,17.5 L52.9207946,17.5 C45.3674906,17.5 42.6273586,18.0291439 39.8085127,19.5366792 C37.5190355,20.761105 35.761105,22.5190355 34.5366792,24.8085127 C33.0291439,27.6273586 32.5,30.3674906 32.5,37.9207946 C32.5,41.5306468 32.5,42.6431961 32.5,45.2606504 Z" id="Rectangle" stroke="#263669" stroke-width="13"></path>
        <path d="M64.8813936,77.961326 L107.152706,77.961326 L107.152706,88.9364641 L77.130467,88.9364641 L77.130467,100.312155 L103.550037,100.312155 L103.550037,111.287293 L77.130467,111.287293 L77.130467,123.063536 L107.553002,123.063536 L107.553002,134.038674 L64.8813936,134.038674 L64.8813936,77.961326 Z M144.780578,135 C140.670847,135 136.854725,134.25231 133.332098,132.756906 C129.809471,131.261503 126.767248,129.218705 124.205337,126.628453 C121.643427,124.038201 119.641964,120.980681 118.20089,117.455801 C116.759815,113.930922 116.039288,110.165766 116.039288,106.160221 L116.039288,106 C116.039288,101.994455 116.759815,98.242651 118.20089,94.7444751 C119.641964,91.2462993 121.643427,88.1754276 124.205337,85.531768 C126.767248,82.8881083 129.836157,80.8052562 133.412157,79.2831492 C136.988157,77.7610421 140.93771,77 145.260934,77 C147.876218,77 150.26463,77.2136259 152.426242,77.640884 C154.587854,78.0681421 156.549287,78.6556132 158.3106,79.4033149 C160.071914,80.1510166 161.69977,81.0589265 163.194218,82.1270718 C164.688666,83.1952171 166.076346,84.3701593 167.357302,85.6519337 L159.51149,94.7044199 C157.323191,92.7283511 155.094896,91.1795636 152.826538,90.058011 C150.55818,88.9364585 148.009651,88.3756906 145.180875,88.3756906 C142.832457,88.3756906 140.657534,88.8296456 138.656042,89.7375691 C136.654549,90.6454926 134.933291,91.9005445 133.492216,93.5027624 C132.051142,95.1049804 130.930323,96.960855 130.129726,99.070442 C129.329129,101.180029 128.928836,103.436452 128.928836,105.839779 L128.928836,106 C128.928836,108.403327 129.329129,110.673102 130.129726,112.809392 C130.930323,114.945683 132.037799,116.814909 133.452187,118.417127 C134.866575,120.019345 136.57449,121.287749 138.575982,122.222376 C140.577475,123.157003 142.779084,123.624309 145.180875,123.624309 C148.383263,123.624309 151.091909,123.036838 153.306894,121.861878 C155.521879,120.686919 157.723488,119.084725 159.911787,117.055249 L167.757598,124.986188 C166.316524,126.534999 164.822098,127.923567 163.274277,129.151934 C161.726456,130.380301 160.031885,131.435078 158.190511,132.316298 C156.349138,133.197518 154.334333,133.865099 152.146034,134.319061 C149.957736,134.773023 147.502608,135 144.780578,135 Z M177.604893,77.961326 L189.934025,77.961326 L189.934025,100.151934 L212.670867,100.151934 L212.670867,77.961326 L225,77.961326 L225,123.432617 L225,134.038674 L212.670867,134.038674 L212.670867,111.527624 L189.934025,111.527624 L189.934025,134.038674 L177.604893,134.038674 L177.604893,77.961326 Z" id="TECH" fill="#263669"></path>
        <path d="M92.3164062,160.905562 L105.610363,160.905562 L120.345833,184.750006 L135.081304,160.905562 L148.375261,160.905562 L148.375261,217.294451 L136.122397,217.294451 L136.122397,180.480562 L120.345833,204.566673 L104.409102,180.722228 L104.409102,217.294451 L92.3164062,217.294451 L92.3164062,160.905562 Z M194.023185,193.691673 L186.575366,175.405562 L179.127547,193.691673 L194.023185,193.691673 Z M181.049564,160.502784 L192.421503,160.502784 L216.446727,217.294451 L203.55319,217.294451 L198.427809,204.647228 L174.722922,204.647228 L169.597541,217.294451 L157.024341,217.294451 L181.049564,160.502784 Z M245.036743,218.100006 C240.76557,218.100006 236.574546,217.361588 232.463542,215.884728 C228.352539,214.407869 224.61532,212.13891 221.251771,209.077784 L228.539423,200.297228 C231.102126,202.391683 233.731527,204.056481 236.427704,205.291673 C239.123882,206.526864 242.073616,207.144451 245.276995,207.144451 C247.839698,207.144451 249.828433,206.674548 251.243259,205.734728 C252.658084,204.794909 253.365487,203.492607 253.365487,201.827784 L253.365487,201.666673 C253.365487,200.861113 253.218667,200.149546 252.925024,199.531951 C252.631381,198.914355 252.070798,198.337046 251.243259,197.800006 C250.415719,197.262966 249.267859,196.725935 247.799643,196.188895 C246.331428,195.651855 244.422776,195.087972 242.073632,194.497228 C239.24398,193.799077 236.681315,193.020381 234.38556,192.161117 C232.089805,191.301854 230.141112,190.241216 228.539423,188.979173 C226.937733,187.717129 225.696442,186.146312 224.815513,184.266673 C223.934584,182.387034 223.494126,180.050946 223.494126,177.258339 L223.494126,177.097228 C223.494126,174.519438 223.974625,172.196776 224.935639,170.129173 C225.896653,168.06157 227.244721,166.27594 228.979885,164.772228 C230.715049,163.268517 232.783867,162.113899 235.186401,161.308339 C237.588935,160.50278 240.231683,160.100006 243.114725,160.100006 C247.225728,160.100006 251.002989,160.717593 254.446622,161.952784 C257.890254,163.187975 261.053544,164.96018 263.936585,167.269451 L257.529859,176.613895 C255.020545,174.895368 252.564658,173.539363 250.162124,172.545839 C247.759589,171.552316 245.357091,171.055562 242.954557,171.055562 C240.552022,171.055562 238.750148,171.525464 237.548881,172.465284 C236.347614,173.405103 235.74699,174.573147 235.74699,175.969451 L235.74699,176.130562 C235.74699,177.043529 235.920503,177.835651 236.267536,178.506951 C236.614569,179.17825 237.241888,179.782411 238.149512,180.319451 C239.057136,180.85649 240.298427,181.36667 241.873421,181.850006 C243.448416,182.333342 245.437151,182.897225 247.839685,183.541673 C250.669337,184.293528 253.19196,185.139353 255.407631,186.079173 C257.623301,187.018992 259.491911,188.146759 261.013516,189.462506 C262.535121,190.778253 263.682981,192.322219 264.457131,194.094451 C265.231281,195.866682 265.618351,197.987957 265.618351,200.458339 L265.618351,200.619451 C265.618351,203.412057 265.111156,205.895829 264.096753,208.070839 C263.08235,210.24585 261.667545,212.071758 259.852297,213.548617 C258.037049,215.025476 255.8748,216.153243 253.365487,216.931951 C250.856173,217.710658 248.079953,218.100006 245.036743,218.100006 Z M289.403322,173.014333 L272.345413,173.014333 L272.345413,169.135107 L272.345413,162.000397 L289.500574,162.000397 L301.73627,162.000397 L301.73627,173.014333 L301.73627,216.294451 L289.403322,216.294451 L289.403322,173.014333 Z M301.678361,173.014333 L318.73627,173.014333 L318.73627,169.135107 L318.73627,162.000397 L301.581109,162.000397 L289.345413,162.000397 L289.345413,173.014333 L289.345413,216.294451 L301.678361,216.294451 L301.678361,173.014333 Z M331.236743,160.905562 L373.521136,160.905562 L373.521136,171.941673 L343.489606,171.941673 L343.489606,183.380562 L369.917352,183.380562 L369.917352,194.416673 L343.489606,194.416673 L343.489606,206.258339 L373.921556,206.258339 L373.921556,217.294451 L331.236743,217.294451 L331.236743,160.905562 Z M409.719139,188.294451 C412.762349,188.294451 415.098111,187.569458 416.726496,186.119451 C418.35488,184.669443 419.16906,182.736129 419.16906,180.319451 L419.16906,180.158339 C419.16906,177.473141 418.314838,175.459272 416.606369,174.116673 C414.897901,172.774073 412.522097,172.102784 409.478887,172.102784 L397.226023,172.102784 L397.226023,188.294451 L409.719139,188.294451 Z M384.893075,160.905562 L410.51998,160.905562 C417.620803,160.905562 423.066466,162.812024 426.857131,166.625006 C430.060511,169.847244 431.662176,174.143498 431.662176,179.513895 C431.662176,184.239844 430.554357,187.958788 428.338687,190.831951 C426.123016,193.705113 423.226671,195.812962 419.649564,197.155562 L433.343942,217.294451 L418.928808,217.294451 L406.916196,199.250006 L397.226023,199.250006 L397.226023,217.294451 L384.893075,217.294451 L384.893075,160.905562 Z M462.734798,218.100006 C458.463626,218.100006 454.272601,217.361588 450.161598,215.884728 C446.050595,214.407869 442.313375,212.13891 438.949827,209.077784 L446.237478,200.297228 C448.800182,202.391683 451.429582,204.056481 454.12576,205.291673 C456.821937,206.526864 459.771671,207.144451 462.97505,207.144451 C465.537754,207.144451 467.526489,206.674548 468.941314,205.734728 C470.35614,204.794909 471.063542,203.492607 471.063542,201.827784 L471.063542,201.666673 C471.063542,200.861113 470.916723,200.149546 470.62308,199.531951 C470.329437,198.914355 469.768854,198.337046 468.941314,197.800006 C468.113775,197.262966 466.965914,196.725935 465.497699,196.188895 C464.029484,195.651855 462.120832,195.087972 459.771687,194.497228 C456.942036,193.799077 454.379371,193.020381 452.083616,192.161117 C449.787861,191.301854 447.839168,190.241216 446.237478,188.979173 C444.635789,187.717129 443.394498,186.146312 442.513569,184.266673 C441.632639,182.387034 441.192181,180.050946 441.192181,177.258339 L441.192181,177.097228 C441.192181,174.519438 441.672681,172.196776 442.633695,170.129173 C443.594708,168.06157 444.942777,166.27594 446.677941,164.772228 C448.413104,163.268517 450.481922,162.113899 452.884457,161.308339 C455.286991,160.50278 457.929739,160.100006 460.81278,160.100006 C464.923784,160.100006 468.701045,160.717593 472.144677,161.952784 C475.58831,163.187975 478.751599,164.96018 481.634641,167.269451 L475.227914,176.613895 C472.718601,174.895368 470.262714,173.539363 467.860179,172.545839 C465.457645,171.552316 463.055147,171.055562 460.652612,171.055562 C458.250078,171.055562 456.448204,171.525464 455.246937,172.465284 C454.04567,173.405103 453.445045,174.573147 453.445045,175.969451 L453.445045,176.130562 C453.445045,177.043529 453.618559,177.835651 453.965592,178.506951 C454.312624,179.17825 454.939943,179.782411 455.847568,180.319451 C456.755192,180.85649 457.996482,181.36667 459.571477,181.850006 C461.146472,182.333342 463.135207,182.897225 465.537741,183.541673 C468.367393,184.293528 470.890016,185.139353 473.105686,186.079173 C475.321357,187.018992 477.189967,188.146759 478.711572,189.462506 C480.233177,190.778253 481.381037,192.322219 482.155187,194.094451 C482.929337,195.866682 483.316406,197.987957 483.316406,200.458339 L483.316406,200.619451 C483.316406,203.412057 482.809212,205.895829 481.794809,208.070839 C480.780405,210.24585 479.365601,212.071758 477.550353,213.548617 C475.735104,215.025476 473.572856,216.153243 471.063542,216.931951 C468.554229,217.710658 465.778008,218.100006 462.734798,218.100006 Z" id="MASTERS" fill="#263669"></path>
        <polygon id="Path" fill="#263669" points="26.3668664 89.2444444 10.0532843 89.2444444 10.0532843 85.2155457 10.0532843 77.8055556 26.4598749 77.8055556 38.1616629 77.8055556 38.1616629 89.2444444 38.1616629 134.194444 26.3668664 134.194444"></polygon>
        <polygon id="Path" fill="#263669" points="43.6250669 89.2444444 27.3114847 89.2444444 27.3114847 85.2155457 27.3114847 77.8055573 43.7180753 77.8055556 55.4198634 77.8055556 55.4198634 89.2444444 55.4198634 134.194444 43.6250669 134.194444"></polygon>
    </g>
</svg>