<svg xmlns="http://www.w3.org/2000/svg" width="116.798" height="98.982">
  <path d="M30.992 0c-2.772 0-5.442.413-7.351 1.434-1.81.968-3.423 2.58-4.391 4.39-.056.104-.68.985-1.072 2.483-.393 1.498-.362 2.488-.362 3.869v6.222h13v-5.414c.198.002-.136.016.176.016h72.631c.34 0-.013-.013.191-.016-.003.205-.015-.148-.015.192v17.121h13V13.176c0-2.773-.413-5.443-1.434-7.352-.968-1.81-2.58-3.423-4.39-4.39C109.065.413 106.395 0 103.623 0h-72.63zM-.045 28.26v11.927h17.861v45.62c0 .27.024.53.032.798v.454h.017c.11 2.309.52 4.48 1.385 6.1.968 1.809 2.58 3.422 4.39 4.39 1.91 1.021 4.58 1.433 7.352 1.433h27.01l.004-.005v.003c1.386 0 2.445-.013 3.752-.275s2.576-.878 3.1-1.158c1.81-.968 3.422-2.58 4.39-4.39.056-.105.68-.987 1.072-2.485.393-1.498.362-2.487.362-3.867v-.744h-.002V60.844l16.38 24.863h.336l16.547-25.115v38.387h12.854v-58.8h-13.945L87.396 65.044 71.94 40.18H57.996v45.802H30.992c-.34 0 .013.013-.191.016.003-.205.015.148.015-.191V40.188h17.86V28.26H-.044z"/>
</svg>