<svg xmlns="http://www.w3.org/2000/svg" width="116.798" height="98.982">
  <path d="M30.992 0c-2.773 0-5.443.413-7.352 1.434-1.81.968-3.423 2.58-4.39 4.39-1.034 1.933-1.434 4.591-1.434 7.352v7.213h13v-7.213c0-.337-.013.013-.016-.192.205.003-.148.016.192.016h72.63c.34 0-.013-.013.192-.016-.003.205-.016-.148-.016.192v7.197h13v-7.197c0-2.773-.412-5.443-1.433-7.352-.968-1.81-2.581-3.423-4.39-4.39C109.064.413 106.394 0 103.622 0zM17.816 41.111v44.696c0 2.772.412 5.44 1.434 7.351.967 1.81 2.58 3.423 4.39 4.39 1.91 1.022 4.58 1.434 7.352 1.434h72.63c2.774 0 5.444-.412 7.352-1.433 1.81-.968 3.423-2.581 4.39-4.39 1.022-1.91 1.434-4.58 1.434-7.352V68.404h-13v17.403c0 .34.013-.014.016.191-.205-.003.148-.016-.191-.016H30.992c-.34 0 .013.013-.192.016.003-.205.016.148.016-.191V41.11z"/>
  <path d="M17.892 39.035H0V27.107h48.72v11.928H30.828v46.872H17.892z"/>
  <path d="M57.86 27.374h13.945L87.26 52.238l15.456-24.864h13.944v58.8h-12.852V47.786L87.26 72.902h-.336l-16.38-24.864v32.383L57.86 80.4z"/>
</svg>