<svg xmlns="http://www.w3.org/2000/svg" width="116.798" height="98.982">
  <g fill="none" fill-rule="evenodd">
    <path d="M24.316 41.112v44.694c0 2.469.173 3.366.666 4.287.4.749.975 1.323 1.723 1.724.922.492 1.818.665 4.287.665h32.88m46.426-68.374v6.188-17.12c0-2.469-.173-3.365-.665-4.287a4.114 4.114 0 0 0-1.724-1.723c-.922-.493-1.818-.666-4.287-.666h-72.63c-2.469 0-3.365.173-4.287.666-.748.4-1.323.975-1.723 1.723-.493.922-.666.832-.666 3.287v3.307" stroke="#000" stroke-width="13"/>
    <path d="M17.892 42.358H0V30.43h48.72v11.928H30.828V89.23H17.892z" fill="#000"/>
    <path d="M57.996 40.18H71.94l15.456 24.863 15.456-24.864h13.944v58.8h-12.852V60.591L87.396 85.707h-.336L70.68 60.843V98.98H57.996z" fill="#000"/>
  </g>
</svg>