<svg xmlns="http://www.w3.org/2000/svg" width="475.314" height="276">
  <g fill-rule="evenodd" font-weight="400" font-family="sans-serif">
    <path d="M44.843 0c-7.857 0-12.372.77-16.178 2.805a19.467 19.467 0 0 0-7.937 7.937c-1.583 2.96-1.951 5.725-2.313 9.014-.361 3.289-.492 6.987-.492 10.916v7.34h13v-7.34c0-3.625.134-6.948.414-9.498.28-2.55.93-4.442.854-4.301.656-1.228 1.377-1.949 2.605-2.605C36.628 13.288 37.593 13 44.843 13h222.16c7.25 0 8.215.288 10.047 1.268 1.228.656 1.949 1.377 2.606 2.605.98 1.832 1.267 2.797 1.267 10.047v100.1h13V26.92c0-7.857-.77-12.372-2.805-16.178a19.467 19.467 0 0 0-7.937-7.937C279.375.769 274.86 0 267.003 0zm-26.92 77.523V249.08c0 7.857.77 12.372 2.805 16.178a19.467 19.467 0 0 0 7.937 7.937c3.806 2.036 8.321 2.805 16.178 2.805h222.16c7.857 0 12.372-.77 16.178-2.805a19.467 19.467 0 0 0 7.937-7.937c2.03-3.794 2.816-8.322 2.805-16.188l-.125-86.105-13 .02.125 86.103c.01 7.241-.282 8.196-1.267 10.039-.657 1.228-1.378 1.949-2.606 2.605-1.832.98-2.797 1.268-10.047 1.268H44.843c-7.25 0-8.215-.288-10.047-1.268-1.228-.656-1.949-1.377-2.605-2.605-.98-1.832-1.268-2.797-1.268-10.047V77.523z" color="#000" white-space="normal" overflow="visible" fill-rule="nonzero"/>
    <text style="line-height:1.25" x="5.221" y="138.009" font-size="84" letter-spacing="-2" word-spacing="0" stroke-width="1.239" transform="translate(-8.077 -11)">
      <tspan x="5.221" y="138.009" style="-inkscape-font-specification:'Gotham Bold'" font-family="Gotham Bold">TECH</tspan>
    </text>
    <text style="line-height:1.25" x="81.448" y="226.776" font-size="40" letter-spacing="-2" word-spacing="0" transform="translate(-8.077 -11)">
      <tspan x="81.448" y="226.776" style="-inkscape-font-specification:'Gotham Bold'" font-size="84" font-family="Gotham Bold">MASTERS</tspan>
    </text>
  </g>
</svg>