<?xml version="1.0" encoding="UTF-8" standalone="no"?>
<svg
   xmlns:dc="http://purl.org/dc/elements/1.1/"
   xmlns:cc="http://creativecommons.org/ns#"
   xmlns:rdf="http://www.w3.org/1999/02/22-rdf-syntax-ns#"
   xmlns:svg="http://www.w3.org/2000/svg"
   xmlns="http://www.w3.org/2000/svg"
   xmlns:sodipodi="http://sodipodi.sourceforge.net/DTD/sodipodi-0.dtd"
   xmlns:inkscape="http://www.inkscape.org/namespaces/inkscape"
   height="125"
   width="125"
   version="1.1"
   viewBox="0 0 125 125.00088"
   id="svg2"
   inkscape:version="0.91 r"
   sodipodi:docname="logo.svg">
  <metadata
     id="metadata10">
    <rdf:RDF>
      <cc:Work
         rdf:about="">
        <dc:format>image/svg+xml</dc:format>
        <dc:type
           rdf:resource="http://purl.org/dc/dcmitype/StillImage" />
        <dc:title></dc:title>
      </cc:Work>
    </rdf:RDF>
  </metadata>
  <defs
     id="defs8" />
  <sodipodi:namedview
     pagecolor="#673ab7"
     bordercolor="#666666"
     borderopacity="1"
     objecttolerance="10"
     gridtolerance="10"
     guidetolerance="10"
     inkscape:pageopacity="1"
     inkscape:pageshadow="2"
     inkscape:window-width="2560"
     inkscape:window-height="1363"
     id="namedview6"
     showgrid="false"
     inkscape:zoom="1.888"
     inkscape:cx="-13.771186"
     inkscape:cy="62.5"
     inkscape:window-x="0"
     inkscape:window-y="25"
     inkscape:window-maximized="1"
     inkscape:current-layer="svg2" />
  <path
     fill="#fff"
     d="m26.041 81.514v-15.341l6.142 6.1152c3.3781 3.3634 9.3602 9.3192 13.294 13.235l7.1516 7.1199v2.1054 2.1054h-13.294-13.294v-15.341zm46.331 13.235v-2.1056l6.5907-6.5586c3.6249-3.6073 9.607-9.563 13.294-13.235l6.7029-6.6763v15.341 15.341h-13.294-13.294v-2.1056zm-12.845-2.135c-1.666-1.652-9.882-9.812-18.257-18.133l-15.229-15.129v-15.603-15.603l4.9641 4.9333c2.7302 2.7133 8.6997 8.6439 13.266 13.179 4.5658 4.5351 10.554 10.485 13.306 13.222l5.0046 4.9767 9.9156-9.85c5.4536-5.4175 13.601-13.525 18.106-18.017 4.5047-4.492 8.2277-8.1672 8.2734-8.1672 0.04573 0 0.08311 7.0087 0.08311 15.575v15.575l-1.6547 1.6074c-1.6654 1.6178-11.287 11.176-26.455 26.278-4.5079 4.4887-8.2181 8.1607-8.2449 8.1601-0.02678-0.00052-1.4117-1.3529-3.0776-3.0051z"
     id="path4" />
</svg>
